<?xml version="1.0" standalone="no"?>
<svg xmlns:xlink="http://www.w3.org/1999/xlink" id="wave" style="transform:rotate(0deg); transition: 0.3s" viewBox="0 0 1440 170" version="1.1" xmlns="http://www.w3.org/2000/svg"><defs><linearGradient id="sw-gradient-0" x1="0" x2="0" y1="1" y2="0"><stop stop-color="rgba(219, 234, 254, 1)" offset="0%"/><stop stop-color="rgba(219, 234, 254, 1)" offset="100%"/></linearGradient></defs><path style="transform:translate(0, 0px); opacity:1" fill="url(#sw-gradient-0)" d="M0,0L48,2.8C96,6,192,11,288,34C384,57,480,96,576,104.8C672,113,768,91,864,73.7C960,57,1056,45,1152,51C1248,57,1344,79,1440,85C1536,91,1632,79,1728,82.2C1824,85,1920,102,2016,93.5C2112,85,2208,51,2304,48.2C2400,45,2496,74,2592,96.3C2688,119,2784,136,2880,127.5C2976,119,3072,85,3168,79.3C3264,74,3360,96,3456,110.5C3552,125,3648,130,3744,121.8C3840,113,3936,91,4032,76.5C4128,62,4224,57,4320,45.3C4416,34,4512,17,4608,22.7C4704,28,4800,57,4896,65.2C4992,74,5088,62,5184,51C5280,40,5376,28,5472,39.7C5568,51,5664,85,5760,104.8C5856,125,5952,130,6048,136C6144,142,6240,147,6336,147.3C6432,147,6528,142,6624,121.8C6720,102,6816,68,6864,51L6912,34L6912,170L6864,170C6816,170,6720,170,6624,170C6528,170,6432,170,6336,170C6240,170,6144,170,6048,170C5952,170,5856,170,5760,170C5664,170,5568,170,5472,170C5376,170,5280,170,5184,170C5088,170,4992,170,4896,170C4800,170,4704,170,4608,170C4512,170,4416,170,4320,170C4224,170,4128,170,4032,170C3936,170,3840,170,3744,170C3648,170,3552,170,3456,170C3360,170,3264,170,3168,170C3072,170,2976,170,2880,170C2784,170,2688,170,2592,170C2496,170,2400,170,2304,170C2208,170,2112,170,2016,170C1920,170,1824,170,1728,170C1632,170,1536,170,1440,170C1344,170,1248,170,1152,170C1056,170,960,170,864,170C768,170,672,170,576,170C480,170,384,170,288,170C192,170,96,170,48,170L0,170Z"/></svg>